<svg id="Layer_1" xmlns="http://www.w3.org/2000/svg" viewBox="0 0 950 430" xmlns:xlink="http://www.w3.org/1999/xlink" x="0px" y="0px">
    <title>Europas ledande onlinebutik för optik</title>
    <desc>Europas ledande onlinebutik för optik - där du köper linser med prisgaranti</desc>
    <style>.st0{fill:none;stroke:#000000;stroke-width:2;stroke-miterlimit:10;} .st1{font-family:&apos;GillSans-Light&apos;;} .st2{font-size:40px;} .st3{fill:#FF0000;stroke:#AA2222;stroke-width:0.5;stroke-miterlimit:10;} .st4{fill:#FFFFFF;}
        .st5{font-family:&apos;GillSans&apos;;} .st6{font-size:36px;}
    </style>
    <a xlink:href="https://www.lensway.se" target="_top">
        <g id="wrapper">
            <g id="background">
                <image style="overflow:visible;enable-background:new;" width="950" height="430" id="background" xlink:href="img/europas-ledande-onlinebutik-optik.jpg"/>
            </g>
            <path id="top-line" class="st0" d="M704 147H252"/>
            <g id="heading">
                <g id="XMLID_14_">
                    <path id="XMLID_15_"
                          d="M301.2 292.7c0-.7 1.4-3.3 4-7.8-2 0-3.2 0-3.8.2-1 .3-2 .8-2.4 1.6-.2.3-.4.4-.5.4 0 0-.2 0-.2-.2v-.3c1-1.2 2-2 2.8-2.5 1-.5 2.4-.7 4.3-.7h1l6-10c1-1.7 1.6-3.2 1.6-4.4 0-1.7-1.2-2.7-3.5-2.7h-.4c-3 0-5.8.8-8.3 2.3-2.5 1.5-4.5 3.4-6 5.7-1.5 2.3-2.2 4.3-2.2 6.2 0 2.2 1 3.3 3 3.3 1.8 0 3.2-.7 4.3-2.2 1.2-1.5 1.8-3 1.8-4.2 0-.7-.2-1.4-.6-1.8v-.2c0-.2 0-.3.2-.3 0 0 .2 0 .2.2.5.6.7 1.4.7 2.2 0 1.5-.5 3-1.7 4.5-1.2 1.4-2.5 2.3-3.8 2.4h-1.2c-1.5 0-2.7-.4-3.6-1.4-.8-1-1.2-2-1.2-3.6 0-.6 0-1.3.2-2 .7-3 2.8-6 6.2-8.4 3.3-2.4 7.2-3.6 11.5-3.6 1.7 0 3 .4 4.3 1s1.8 1.8 1.8 3c0 1.4-.4 2.7-1.3 4l-6.5 10 4 .4 4.6.3h2l1.4-2.2c2.3-4 5-7.6 8-11 3.2-3.4 5.8-5.5 8-6.3h.3c.3 0 .4 0 .4.3v.2c-1.6 1-3.8 3-6.7 6.3s-5.3 6.7-7.4 10.2L321 284c1-.2 1.8-.5 2.3-1 0 0 .2 0 .3.2v.3c-.7.6-1.7 1-3 1.2-1.8 3-2.6 5.3-2.6 6.6 0 .8.3 1.2 1 1.2.5 0 1-.2 1.7-.5l1.3-.8.4-.3v.5c-.5.4-1 .8-2 1.2-.7.4-1.4.6-2 .6-.4 0-.8 0-1-.3-.8-.5-1.2-1.4-1.2-2.6 0-1.2.6-3 2-5.5h-2.6c-.3 0-3 0-8.5-.3-1.6 2.7-3 5-4 7.3-.3.6-.7 1-1 1-.6.2-.8 0-.8-.3z"/>
                    <path id="XMLID_19_"
                          d="M337.2 280.2h.5c.3 0 .5 0 .8.2l.4.5-2.3 3.4c-1.5 2.2-2.2 3.7-2.2 4.6v.2c0 .6.4.8.8.8 1.2 0 3.5-2 6.8-6.2h.4v.2l-.2.7c-3 4-5.4 6.2-7 6.2-.2 0-.4 0-.6-.2-1-.4-1.6-1.2-1.6-2.4v-1.2l-2 2.2c-1.5 1.2-2.5 2-3.2 2s-1.2-.3-1.8-.7c-.6-.5-1-1-1-2 0-1.7 1.2-3.7 3.7-6.2 2.4-2.4 4.7-3.7 6.7-3.7.8 0 1.3.3 1.6.8 0 .2 0 .4.2.5s0 .2 0 .2zm-10.7 9c0 .8.3 1.2 1 1.2 1.3 0 3.2-1.5 5.6-4.6l4-5.3c-.3-.3-.6-.5-1-.5-1.5 0-3.4 1-5.8 3.4-2.5 2.3-3.7 4.2-3.7 5.7z"/>
                    <path id="XMLID_22_"
                          d="M346 279.6c.5 0 1 .3 1 .8 0 0 0 .3-.2.4-2.2 3-3.5 5.3-4 6.8 5.7-5.6 9-8.4 10.3-8.4h.4c.7 0 1 .3 1 1v.3l-1.5 2c-1.2 1-2 2.3-2.8 3.5s-1 2-1 3c0 .7 0 1 .4 1 1 0 3-1.4 5.5-4.3l.4-.3.6-.6v.4c0 .2 0 .6-.4 1-3 3.3-5 5-6.3 5-1.2 0-1.8-.6-1.8-2s.5-2.7 1.4-4.4l2.2-3.7c-1.6 1.3-3 2.6-4.4 4s-2.4 2.8-3.5 4.2c-1 1.3-1.7 2-1.8 2-.4 0-.6 0-.8-.5-.2-.3-.3-.7-.3-1 0-.5.2-1 .5-2l1-2.6-2 2.4-1 .8-.3-.2.3-.5c1-1 1.7-1.7 2.3-2.6.6-1 2-2.5 4-4.8 0-.4.3-.6.6-.6z"/>
                    <path id="XMLID_24_"
                          d="M366.4 280c2.7-4.3 4.6-6.5 5.6-6.5.2 0 .4 0 .7.2.3 0 .5.3.5.5 0 0 0 .3-.2.5l-4.3 5.3c-2.8 3.6-4.4 6-4.7 7.7v1c0 1 .3 1.6 1.2 1.6 1.8 0 4-1.6 7-5 0 0 .3-.3.5-.3h.3c0 .2 0 .4-.2.5-2.8 3.3-5.3 5.2-7.4 5.6h-.5c-.8 0-1.4-.2-1.8-.7-.4-.5-.6-1-.6-1.7s0-1.4.4-2.2l-3 3c-1.2 1-2.3 1.7-3 1.7s-1.4 0-2-.5c-.5-.5-.8-1-.8-2 0-1.7 1.2-3.7 3.7-6.2 2.3-2.4 4.6-3.7 6.6-3.7.7 0 1 .2 1.4.5l.4 1zm-10.6 9c0 1 .3 1.4 1 1.4 1 0 2.6-1.4 5-4.2.4-.5 2-2.4 4.3-5.7 0-.3-.4-.4-.8-.4-1.5 0-3.4 1.2-6 3.5-2.2 2.2-3.4 4-3.4 5.6z"/>
                    <path id="XMLID_27_"
                          d="M372.8 289.2c0 .7.4 1 1.2 1s1.8-.3 3-1.2c1.3-.8 2.6-2 3.7-3.4.3-.4.5-.6.7-.6s.3 0 .3.2l-1.5 2c-2.4 2.5-4.4 4-6 4-.8 0-1.5-.3-2-.7-.6-.4-.8-1-.8-1.7 0-.8.2-1.7.6-2.7.7-1.5 1.8-3.6 3.3-6 2.8-4.7 4.8-7 6-7l.7.4c.3.2.4.4.4.6l-3.2 4.3c-1.6 2-2.7 3.6-3.3 4.6l-1.5 2-.7 1c0 .4-.3.7-.5 1-.3.7-.5 1.5-.5 2.2z"/>
                    <path id="XMLID_29_"
                          d="M392 280.2h.6c.3 0 .5 0 .8.2l.4.5-2.2 3.4c-1.5 2.2-2.2 3.7-2.2 4.6v.2c0 .6.4.8.8.8 1.2 0 3.5-2 6.8-6.2h.3v.2l-.2.7c-3 4-5.3 6.2-7 6.2 0 0-.3 0-.5-.2-1-.4-1.6-1.2-1.6-2.4v-1.2l-2.2 2.2c-1.4 1.2-2.4 2-3 2s-1.3-.3-2-.7c-.5-.5-1-1-1-2 0-1.7 1.3-3.7 3.8-6.2 2.4-2.4 4.7-3.7 6.7-3.7.8 0 1.3.3 1.6.8v.7zm-10.6 9c0 .8.3 1.2 1 1.2 1.3 0 3.2-1.5 5.6-4.6l3.8-5.3c-.2-.3-.5-.5-1-.5-1.4 0-3.3 1-5.7 3.4-2.4 2.3-3.6 4.2-3.6 5.7z"/>
                    <path id="XMLID_32_"
                          d="M403.5 289.2c0 .7.4 1 1.2 1s1.8-.3 3-1.2c1.3-.8 2.6-2 3.7-3.4.3-.4.5-.6.7-.6s.4 0 .4.2l-1.5 2c-2.5 2.5-4.5 4-6 4-1 0-1.6-.3-2-.7-.7-.4-1-1-1-1.7 0-.8.3-1.7.7-2.7.7-1.5 1.8-3.6 3.3-6 2.8-4.7 4.8-7 6-7l.7.4c.3.2.4.4.4.6l-3 4.3c-1.7 2-2.8 3.6-3.4 4.6l-1.4 2-.7 1c0 .4-.3.7-.5 1-.3.7-.5 1.5-.5 2.2z"/>
                    <path id="XMLID_34_"
                          d="M412 291.4c-1 0-1.7-.8-1.7-2.4 0-1.3.7-3 2-5.4 1.5-2.3 2.7-3.4 3.5-3.5l.8.4c.3.2.4.4.4.6 0 .2-.3.4-.4.6l-.5.7c0 .2-.4.6-.7 1l-1 1.3c-1.8 2.3-2.7 4-2.7 4.8s.3 1.3 1 1.3c.4 0 1-.3 2-.8 2-1.3 3.6-2.7 4.8-4.2.4-.6.7-.8 1-.8v.3l-.7 1.2-1.3 1.4-.7.6-.7.6-.7.6-.7.5-.8.5-.8.4-2 .2zm7.7-14.7c.3.2.5.5.5.8 0 .3-.2.6-.5.8-.3.2-.6.3-1 .3s-.7 0-1-.4c-.3-.3-.4-.6-.4-1 0-.6.5-1 1.4-1 .3 0 .7.2 1 .5z"/>
                    <path id="XMLID_37_"
                          d="M424.8 279.6c.6 0 1 .3 1 .8v.4c-2.3 3-3.6 5.3-4 6.8 5.6-5.6 9-8.4 10.2-8.4h.3c.7 0 1 .3 1 1v.3l-1.5 2c-1 1-2 2.3-2.7 3.5s-1 2-1 3c0 .7.2 1 .5 1 1 0 3-1.4 5.5-4.3 0 0 0-.2.3-.3l.6-.6v.4l-.5 1c-3 3.3-5 5-6.3 5-1.2 0-1.8-.6-1.8-2s.5-2.7 1.4-4.4l2.3-3.7c-1.5 1.3-3 2.6-4.3 4s-2.4 2.8-3.5 4.2c-1 1.3-1.7 2-1.8 2-.4 0-.6 0-.8-.5-.2-.3-.3-.7-.3-1 0-.5.2-1 .5-2l1.2-2.6-2.2 2.4-1 .8-.2-.2.3-.5c.8-1 1.6-1.7 2.2-2.6.6-1 2-2.5 4-4.8 0-.4.3-.6.6-.6z"/>
                    <path id="XMLID_39_"
                          d="M440 290.5c-.6.4-1.5.6-2.5.6s-1.8-.2-2.3-1-1-1.6-1.4-3c-.4.3-.7.5-1 .5v-.3-.4l4-4.2 4.6-4.2c1.3-1.2 2-1.8 2.3-1.8.8 0 1.2.3 1.2 1l-.4.7-.5.6-.2.4c-.4.7-1 2.3-1.3 4.6l-1 5c2 0 4-1.4 6.2-4l.5-.4s.2 0 .2.2 0 .4-.3.6c-1.3 1.6-2.6 2.8-3.8 3.4-.7.4-1.7.7-2.8 1l-1.3.7zm-4.8-4c0 .8.3 1.5.8 2s1 .8 1.8.8 1.2 0 1.5-.4c.5-.4 1-1.5 1.4-3.4.5-2 .7-3.7.8-5v-1.3c-1.2 1-2.6 2.3-4 3.8-1.6 1.7-2.4 2.7-2.4 3.2.3 0 .2 0 .2.3z"/>
                    <path id="XMLID_42_"
                          d="M448.2 291.5h-.7c-1.5-.5-2.3-1.4-2.3-2.7 0-1.7 1-3.6 3.2-5.8 2-2.2 4-3.3 5.7-3.3.7 0 1 .2 1.4.5s.5.7.5 1c0 1.4-1 2.7-3 4-2 1.2-3.8 1.8-5 1.8h-.6c-.4.5-.5 1.2-.5 2 0 1.2.5 2 1.7 2s2.7-1 4.6-2.5c1.5-1.2 2.7-2.4 3.7-3.7.2-.3.4-.4.6-.4s.2 0 .2.2c0 0 0 .3-.3.6-1.3 1.7-3 3.2-4.7 4.5-1.7 1-3.3 1.8-4.6 1.8zM455 281c0-.2-.3-.3-1-.3-.5 0-1.4.5-2.5 1.4-1.5 1.3-2.7 2.7-3.5 4h.5c1 0 2-.4 3.7-1.4 1.5-1 2.5-2 3-3.2-.2 0-.2-.2-.2-.3z"/>
                    <path id="XMLID_45_"
                          d="M463 291.2c-1.8 0-2.7-1-2.7-3 0-1 .3-2 .8-3.3.6-1.3 1.2-2.3 1.8-3h-.5c-.6 0-1-.5-1.4-1.3l-2.8 3.5c-1.5 1.8-2.4 2.8-2.6 2.8h-.2c0-.3.2-.7.6-1 2-2.5 3.6-4.6 4.4-6.3.6-2 1.2-3 2-3 .7 0 1 0 1 .6 0 .5-.4 1-1 1.8l-1 1.3c0 .5.5.8 1.2.8.4 0 1 0 1.4-.4l1-.6h.3c.2 0 .4 0 .6.4 0 .2.2.5 0 .6l-2.4 3c-1.5 2-2.3 3.6-2.3 4.8s.5 1.7 1.6 1.7c1 0 2.4-.6 4-1.8 1-.7 1.8-1.5 2.6-2.3.7-1 1.2-1.3 1.2-1.3.2 0 .3.2.3.4s0 .4-.2.6l-1.2 1.3c-.6.7-1.4 1.3-2.2 2-1.6 1.2-3.2 2-4.4 2z"/>
                    <path id="XMLID_47_"
                          d="M485.5 291c-1.4 0-2-1-2-2.6 0-1 .2-2 1-3l2.3-4c-3 1.4-6 3.7-8.4 6.7-1.4 2.2-2.2 3.2-2.4 3.2-.7 0-1-.2-1-.6 0-.2 0-.6.4-1.2 2.3-4.2 4-7.2 5.3-9 3-4.7 5-7.2 6-7.6.4 0 .6.3.7.8 0 .5-1.3 2.3-3.7 5.5-2.5 3.3-4 5.4-4.3 6.4l4.6-3.3c2.4-1.6 4-2.4 4.7-2.4.8 0 1.2.3 1.2 1l-2.6 3.5c-1.7 2.3-2.5 4-2.5 5 0 .6 0 .8.5.8 1.3 0 3.2-1.6 5.8-4.7l.5-.2.2.2c0 .5-1.2 1.8-3.6 4-1.4 1.2-2.4 2-3 2z"/>
                    <path id="XMLID_49_"
                          d="M502.5 280.2h.5c.3 0 .5 0 .8.2l.4.5-2.2 3.4c-1.5 2.2-2.2 3.7-2.2 4.6v.2c0 .6.4.8.8.8 1.2 0 3.5-2 6.8-6.2h.3v.2l-.2.7c-3 4-5.4 6.2-7 6.2-.2 0-.4 0-.6-.2-1.2-.4-1.7-1.2-1.7-2.4v-1.2l-2.2 2.2c-1.3 1.2-2.3 2-3 2s-1-.3-1.7-.7c-.6-.5-1-1-1-2 0-1.7 1.2-3.7 3.7-6.2 2.4-2.4 4.7-3.7 6.7-3.7.8 0 1.3.3 1.6.8 0 .2 0 .4.2.5s0 .2 0 .2zm-10.8 9c0 .8.3 1.2 1 1.2 1.3 0 3.2-1.5 5.6-4.6 2.4-3.2 3.6-5 4-5.3-.3-.3-.6-.5-1-.5-1.5 0-3.4 1-5.8 3.4-2.6 2.3-3.8 4.2-3.8 5.7zm9-12.5s-.3 0-.4-.3l-.2-.5c0-.4.4-.8 1-1.2l1-.6h.4l-.4.5-.5 1.2c-.3.4-.5.7-.8.7zm3.5 0s-.3 0-.4-.3l-.2-.5c0-.4.3-.8 1-1.2l1-.6h.3l-.5.6-.5 1.2c-.2.4-.5.7-.8.7z"/>
                    <path id="XMLID_54_"
                          d="M512.7 291.2c-1.8 0-2.7-1-2.7-3 0-1 .3-2 .8-3.3.5-1.3 1-2.3 1.7-3h-.5c-.6 0-1-.5-1.4-1.3l-2.7 3.5c-1.6 1.8-2.5 2.8-2.7 2.8h-.2c0-.3.3-.7.7-1 2-2.5 3.6-4.6 4.4-6.3.7-2 1.3-3 2.2-3 .6 0 .8 0 .8.6 0 .5-.3 1-1 1.8l-.8 1.3c0 .5.4.8 1 .8.5 0 1 0 1.5-.4l1-.6h.3c.2 0 .4 0 .6.4.2.2.3.5.2.6l-2.5 3c-1.5 2-2.3 3.6-2.3 4.8s.5 1.7 1.6 1.7c1 0 2.5-.6 4-1.8 1-.7 2-1.5 2.7-2.3.7-1 1.2-1.3 1.2-1.3.2 0 .3.2.3.4s0 .4-.3.6l-1.2 1.3c-.6.7-1.4 1.3-2.2 2-1.5 1.2-3 2-4.3 2z"/>
                </g>
                <text id="XMLID_16_" transform="translate(299.461 184)">
                    <tspan x="0" y="0" class="st1 st2">EUROPAS LEDANDE</tspan>
                    <tspan x="-44.6" y="48" class="st1 st2">ONLINEBUTIK FÖR OPTIK</tspan>
                </text>
            </g>
            <g id="button">
                <circle id="background" class="st3" cx="545" cy="283" r="16"/>
                <text id="double-arrow" transform="translate(537 291)" class="st4 st5 st6">»</text>
            </g>
            <path id="bottom-line" class="st0" d="M701 317H249"/>
        </g>
    </a>
</svg>